<svg width="40" xmlns="http://www.w3.org/2000/svg" height="40" fill="none"><g data-testid="github icon" xml:space="preserve" style="fill: rgb(0, 0, 0);"><path d="M19.999.493C8.955.493 0 9.447 0 20.493c0 8.837 5.73 16.334 13.676 18.979 1 .185 1.367-.434 1.367-.962 0-.477-.019-2.052-.027-3.723-5.563 1.21-6.738-2.36-6.738-2.36-.91-2.312-2.22-2.927-2.22-2.927-1.815-1.242.137-1.215.137-1.215 2.008.142 3.065 2.062 3.065 2.062 1.783 3.056 4.678 2.173 5.819 1.661.18-1.293.699-2.175 1.27-2.675-4.441-.505-9.111-2.22-9.111-9.883 0-2.183.782-3.968 2.062-5.368-.209-.505-.894-2.539.193-5.294 0 0 1.68-.536 5.501 2.05a19.181 19.181 0 0 1 5.005-.673c1.7.008 3.412.23 5.01.673 3.816-2.588 5.495-2.05 5.495-2.05 1.088 2.755.403 4.789.196 5.294 1.282 1.4 2.059 3.185 2.059 5.368 0 7.682-4.679 9.373-9.132 9.868.717.62 1.357 1.839 1.357 3.704 0 2.676-.023 4.83-.023 5.488 0 .532.36 1.157 1.373.96C34.277 36.822 40 29.328 40 20.495 39.998 9.448 31.044.493 19.999.493Z" style="fill-rule: evenodd; clip-rule: evenodd; fill: rgb(255, 255, 255); fill-opacity: 1;" class="fills" data-testid="svg-path"/><path d="M7.575 29.21c-.044.1-.2.13-.344.062-.145-.065-.226-.202-.18-.3.044-.102.2-.13.345-.062.145.063.229.2.179.3ZM8.385 30.113c-.095.089-.282.047-.409-.091-.131-.14-.155-.327-.058-.415.098-.089.278-.047.41.093.132.138.157.323.057.413ZM9.173 31.265c-.123.085-.323.005-.447-.172-.123-.178-.123-.391.004-.476.123-.085.321-.009.446.168.122.18.122.393-.003.48ZM10.253 32.378c-.11.122-.343.089-.513-.076-.175-.162-.224-.39-.114-.512.112-.122.347-.087.519.077.173.161.225.391.108.511ZM11.745 33.023c-.049.157-.274.229-.5.162-.227-.068-.375-.252-.329-.41.047-.158.274-.232.502-.16.225.067.373.25.327.408ZM13.381 33.143c.005.165-.187.302-.425.305-.238.005-.433-.128-.435-.29 0-.166.188-.301.427-.306.238-.005.433.128.433.291ZM14.904 32.885c.029.16-.136.327-.373.37-.232.043-.447-.057-.477-.217-.028-.165.14-.33.372-.373.235-.042.448.055.478.22Z" style="fill: rgb(255, 255, 255); fill-opacity: 1;" class="fills" data-testid="svg-path"/></g></svg>